<?xml version="1.0" standalone="no"?>
<!DOCTYPE svg PUBLIC "-//W3C//DTD SVG 20010904//EN"
 "http://www.w3.org/TR/2001/REC-SVG-20010904/DTD/svg10.dtd">
<svg version="1.0" xmlns="http://www.w3.org/2000/svg"
 width="1024.000000pt" height="1024.000000pt" viewBox="0 0 1024.000000 1024.000000"
 preserveAspectRatio="xMidYMid meet">

<g transform="translate(0.000000,1024.000000) scale(0.100000,-0.100000)"
fill="#000000" stroke="none">
<path d="M4117 9020 c-880 -85 -1641 -532 -2115 -1243 -488 -730 -613 -1690
-330 -2532 142 -423 365 -782 682 -1100 457 -457 976 -724 1632 -837 113 -19
166 -22 429 -22 321 -1 401 7 640 60 298 66 609 197 887 372 120 75 311 221
405 310 l62 58 152 -152 151 -151 -16 -53 c-10 -33 -16 -91 -16 -151 0 -120
30 -225 91 -319 27 -43 264 -289 729 -759 802 -812 859 -868 935 -916 255
-163 592 -92 756 159 103 157 113 351 27 526 -41 85 -42 85 -822 868 -430 431
-808 803 -841 827 -79 56 -127 80 -206 101 -80 21 -234 21 -304 0 l-50 -16
-158 159 -158 158 63 84 c195 259 369 628 458 974 125 479 128 968 11 1459
-117 485 -365 928 -726 1292 -464 468 -1005 738 -1660 829 -129 18 -578 28
-708 15z m573 -410 c278 -30 587 -119 825 -239 252 -128 436 -259 632 -452
442 -434 690 -994 728 -1649 23 -394 -85 -881 -277 -1250 -116 -222 -235 -385
-427 -583 -205 -211 -421 -368 -686 -498 -351 -171 -665 -244 -1060 -243 -374
0 -664 60 -990 204 -762 337 -1276 974 -1440 1785 -37 185 -48 334 -42 570 11
387 79 676 236 1000 260 534 680 931 1236 1168 209 90 477 161 690 185 111 13
461 14 575 2z m2578 -4901 c44 -11 90 -54 825 -788 838 -837 815 -811 805
-906 -14 -124 -159 -187 -269 -117 -61 40 -1528 1523 -1556 1574 -38 69 -25
146 33 199 27 25 73 46 102 48 7 1 34 -4 60 -10z"/>
<path d="M4228 8319 c-547 -43 -1102 -329 -1467 -753 -289 -336 -455 -714
-506 -1151 -33 -284 -5 -601 63 -729 73 -136 217 -142 281 -12 l25 49 -17 161
c-70 655 101 1169 528 1591 221 219 463 361 765 448 167 49 269 61 495 62 232
0 285 -7 495 -62 217 -58 290 -55 349 12 87 100 27 203 -161 275 -232 89 -568
132 -850 109z"/>
</g>
</svg>
