<?xml version="1.0" standalone="no"?>
<!DOCTYPE svg PUBLIC "-//W3C//DTD SVG 20010904//EN"
 "http://www.w3.org/TR/2001/REC-SVG-20010904/DTD/svg10.dtd">
<svg version="1.0" xmlns="http://www.w3.org/2000/svg"
 width="1024.000000pt" height="1024.000000pt" viewBox="0 0 1024.000000 1024.000000"
 preserveAspectRatio="xMidYMid meet">

<g transform="translate(0.000000,1024.000000) scale(0.100000,-0.100000)"
fill="#000000" stroke="none">
<path d="M5029 9071 c-43 -14 -70 -31 -204 -135 -71 -55 -188 -145 -260 -200
-71 -55 -191 -148 -265 -206 -75 -58 -200 -154 -279 -215 -196 -151 -595 -460
-1251 -969 -135 -104 -420 -325 -635 -490 -1142 -879 -1115 -857 -1143 -905
-19 -32 -27 -63 -30 -108 -6 -95 12 -149 72 -208 65 -64 123 -85 234 -85 l82
0 0 -1999 c0 -2207 -5 -2049 63 -2119 18 -19 50 -43 72 -55 l40 -22 1315 0
1315 0 40 22 c51 27 90 68 109 115 14 33 16 190 16 1393 l0 1355 795 0 795 0
2 -1362 c3 -1514 -3 -1386 69 -1457 71 -72 -53 -66 1414 -66 l1320 0 40 22
c47 25 85 64 111 113 18 34 19 103 20 2030 0 1097 1 2003 2 2013 2 15 13 17
80 17 103 0 168 20 224 70 111 97 124 255 31 366 -10 12 -133 109 -273 216
-140 107 -345 264 -455 348 -110 85 -253 195 -318 244 -66 50 -233 179 -372
286 -561 433 -1597 1230 -1705 1312 -63 48 -266 203 -450 344 -403 309 -413
316 -453 331 -36 13 -129 15 -168 4z m318 -747 c65 -50 240 -184 388 -298 149
-114 394 -303 545 -420 151 -117 412 -317 580 -446 168 -129 519 -399 780
-600 261 -201 531 -409 600 -461 l125 -95 3 -2057 2 -2057 -965 0 -965 0 -2
1358 -3 1359 -30 49 c-19 30 -49 60 -79 79 l-49 30 -1131 3 c-834 2 -1145 0
-1185 -8 -43 -10 -63 -22 -100 -59 -28 -28 -51 -62 -59 -87 -9 -32 -12 -355
-12 -1383 l0 -1341 -955 0 -955 0 3 2057 2 2057 290 223 c160 123 394 303 520
401 127 97 358 275 515 396 157 121 323 249 370 285 154 119 712 550 900 696
102 79 286 222 410 318 l225 174 57 -41 c31 -23 110 -82 175 -132z"/>
</g>
</svg>
