<?xml version="1.0" standalone="no"?>
<!DOCTYPE svg PUBLIC "-//W3C//DTD SVG 20010904//EN"
 "http://www.w3.org/TR/2001/REC-SVG-20010904/DTD/svg10.dtd">
<svg version="1.0" xmlns="http://www.w3.org/2000/svg"
 width="1024.000000pt" height="1024.000000pt" viewBox="0 0 1024.000000 1024.000000"
 preserveAspectRatio="xMidYMid meet">

<g transform="translate(0.000000,1024.000000) scale(0.100000,-0.100000)"
fill="#000000" stroke="none">
<path d="M7680 8921 c-84 -27 -154 -81 -218 -169 -100 -138 -358 -353 -682
-567 -246 -163 -408 -256 -674 -386 -469 -228 -883 -367 -1356 -454 -415 -76
-564 -85 -1359 -85 -365 0 -698 -5 -751 -10 -324 -34 -625 -205 -835 -475
-146 -187 -224 -358 -272 -600 -24 -123 -24 -449 1 -583 75 -408 321 -748 665
-921 55 -27 125 -58 156 -67 30 -10 57 -25 60 -33 9 -33 409 -1461 440 -1576
18 -66 70 -253 115 -415 232 -834 215 -786 299 -890 119 -148 273 -238 503
-292 126 -29 399 -32 528 -4 113 24 225 65 296 107 74 43 201 169 238 234 43
77 70 195 63 280 -3 38 -47 241 -97 450 -51 209 -103 423 -115 475 -80 340
-230 971 -250 1055 -47 198 -116 508 -113 510 2 2 32 -1 68 -6 351 -51 743
-140 1049 -241 695 -227 1342 -581 1862 -1016 99 -83 126 -114 173 -196 43
-74 89 -120 158 -157 55 -29 74 -34 153 -37 75 -3 100 0 148 18 88 33 155 93
197 175 l35 68 3 2731 c2 2000 0 2747 -8 2791 -23 117 -97 211 -208 263 -47
22 -73 27 -152 29 -52 1 -106 -1 -120 -6z m-40 -3036 c0 -1240 -3 -2255 -6
-2255 -3 0 -38 28 -78 63 -447 393 -1082 757 -1756 1007 -382 141 -844 269
-1248 346 l-202 38 2 815 3 815 150 23 c778 119 1555 394 2270 804 283 162
648 413 795 548 30 27 58 50 63 51 4 0 7 -1015 7 -2255z m-3852 4 l2 -807
-167 -4 c-352 -10 -771 -9 -863 2 -211 24 -331 80 -470 220 -78 77 -105 112
-143 186 -74 145 -92 221 -91 399 0 178 18 256 91 399 58 112 181 242 290 305
77 46 187 87 268 100 27 5 282 8 565 7 l515 -1 3 -806z m15 -1516 c102 -445
359 -1533 487 -2058 54 -221 58 -269 23 -307 -53 -58 -185 -92 -329 -85 -162
9 -258 53 -308 140 -13 24 -68 203 -125 412 -147 540 -303 1107 -486 1760 -41
149 -75 278 -75 288 0 16 25 17 388 17 l387 0 38 -167z"/>
</g>
</svg>
