<?xml version="1.0" standalone="no"?>
<!DOCTYPE svg PUBLIC "-//W3C//DTD SVG 20010904//EN"
 "http://www.w3.org/TR/2001/REC-SVG-20010904/DTD/svg10.dtd">
<svg version="1.0" xmlns="http://www.w3.org/2000/svg"
 width="1024.000000pt" height="1024.000000pt" viewBox="0 0 1024.000000 1024.000000"
 preserveAspectRatio="xMidYMid meet">

<g transform="translate(0.000000,1024.000000) scale(0.100000,-0.100000)"
fill="#000000" stroke="none">
<path d="M2812 8754 c-93 -20 -177 -69 -258 -149 -79 -78 -137 -181 -154 -274
-7 -35 -10 -1149 -10 -3205 0 -3478 -5 -3201 62 -3330 41 -77 145 -181 224
-223 127 -68 -55 -63 2434 -63 2488 0 2304 -5 2440 63 79 39 193 149 233 224
15 28 36 86 47 129 20 76 20 121 20 3193 0 2025 -4 3141 -10 3186 -12 83 -60
188 -119 263 -49 62 -162 139 -253 173 l-63 24 -2265 2 c-1904 1 -2275 -1
-2328 -13z m4495 -460 c15 -11 38 -36 51 -54 l22 -33 -2 -3083 -3 -3084 -38
-37 -37 -38 -2174 -3 -2173 -2 -34 23 c-19 12 -42 38 -52 57 -16 33 -17 198
-15 3107 l3 3072 21 28 c11 15 40 38 64 51 l45 22 2147 -2 2147 -3 28 -21z"/>
<path d="M4894 6805 c-381 -67 -730 -315 -968 -688 -106 -165 -197 -398 -243
-620 -25 -123 -27 -150 -27 -382 -1 -217 2 -265 21 -365 75 -391 241 -705 506
-956 196 -186 414 -304 657 -355 127 -27 379 -32 500 -10 384 70 734 315 974
684 140 214 234 488 267 776 17 149 7 436 -20 580 -126 671 -600 1195 -1201
1326 -104 23 -361 28 -466 10z m431 -460 c152 -42 343 -160 459 -286 144 -155
259 -378 304 -589 90 -418 25 -829 -183 -1152 -65 -101 -230 -261 -330 -321
-299 -177 -668 -165 -957 29 -82 55 -206 180 -267 269 -145 209 -218 448 -228
747 -6 187 5 309 43 464 107 437 416 773 783 850 84 17 293 11 376 -11z"/>
</g>
</svg>
