<?xml version="1.0" standalone="no"?>
<!DOCTYPE svg PUBLIC "-//W3C//DTD SVG 20010904//EN"
 "http://www.w3.org/TR/2001/REC-SVG-20010904/DTD/svg10.dtd">
<svg version="1.0" xmlns="http://www.w3.org/2000/svg"
 width="1024.000000pt" height="1024.000000pt" viewBox="0 0 1024.000000 1024.000000"
 preserveAspectRatio="xMidYMid meet">

<g transform="translate(0.000000,1024.000000) scale(0.100000,-0.100000)"
fill="#000000" stroke="none">
<path d="M2965 8979 c-274 -40 -505 -245 -591 -524 -18 -58 -19 -168 -19
-3335 l0 -3275 27 -76 c39 -111 92 -195 173 -274 81 -80 152 -125 257 -163
l73 -27 2385 0 2385 0 89 29 c175 58 321 185 402 352 80 164 74 -71 74 2906
l0 2660 -207 211 c-228 233 -829 841 -1218 1233 -213 214 -257 254 -300 270
-48 18 -114 19 -1760 20 -941 1 -1737 -2 -1770 -7z m3177 -1046 l3 -588 27
-73 c71 -194 207 -333 391 -401 l72 -26 568 -3 567 -3 0 -2432 c0 -1575 -4
-2445 -10 -2468 -13 -47 -72 -114 -124 -142 l-41 -22 -2310 0 c-2235 0 -2311
1 -2345 19 -49 26 -88 64 -113 111 l-22 40 0 3195 0 3195 22 40 c32 59 85 105
145 126 51 17 126 18 1610 19 l1557 0 3 -587z m1400 -633 c-4 -3 -185 -3 -402
0 -431 5 -421 4 -484 66 -62 63 -61 51 -64 496 l-3 408 480 -483 c264 -265
477 -484 473 -487z"/>
<path d="M3577 6200 c-50 -15 -98 -61 -124 -118 -47 -102 -16 -229 70 -289
l40 -28 1661 -5 c914 -3 1689 -2 1724 1 81 8 132 43 167 112 27 55 33 124 15
187 -13 49 -66 109 -114 131 -39 18 -107 19 -1726 18 -927 0 -1698 -5 -1713
-9z"/>
<path d="M3549 4892 c-153 -80 -161 -306 -14 -397 l48 -30 1701 0 1701 0 48
28 c26 15 60 47 75 69 24 37 27 50 27 129 0 81 -2 90 -30 131 -20 28 -49 52
-84 71 l-55 27 -1682 0 -1682 0 -53 -28z"/>
<path d="M3572 3625 c-61 -27 -94 -57 -118 -109 -52 -111 -17 -240 81 -301
l48 -30 986 0 986 0 43 23 c55 29 98 90 112 156 20 99 -21 192 -107 243 l-48
28 -975 2 c-834 2 -980 0 -1008 -12z"/>
</g>
</svg>
